# xmcd
#
# Track frame offsets:
#	150
#	13482
#	29439
#	39797
#	55330
#	70578
#
# Disc length: 1090 seconds
# Revision: 0
# Processed by: cddbd v1.5.2PL0 Copyright (c) Steve Scherf et al.
# Submitted via: dBpowerAMP V12.0
#
DISCID=48044006
DTITLE=Leslie tom - The Second Act
DYEAR=2012
DGENRE=Country
TTITLE0=Slowdown Cowgirl
TTITLE1=I'm Together Again
TTITLE2=Ain't Had No Lovin'
TTITLE3=That Someone Else
TTITLE4=You Never Can Tell (C'est La Vie)
TTITLE5=Big Girl Panties
EXTD=
EXTT0=
EXTT1=
EXTT2=
EXTT3=
EXTT4=
EXTT5=
PLAYORDER=
